<?xml version="1.0" encoding="UTF-8"?>
<svg id="Calque_2" data-name="Calque 2" xmlns="http://www.w3.org/2000/svg" viewBox="0 0 375 119">
  <defs>
    <style>
      .cls-1 {
        fill: #d34a3e;
      }
    </style>
  </defs>
  <g id="Maquette">
    <g>
      <g>
        <path class="cls-1" d="m171.78,48.27h107.8c6.18,0,11.2,5.02,11.2,11.2v.06c0,6.18-5.02,11.2-11.2,11.2h-107.8v-22.47h0Z" transform="translate(290.78 -171.78) rotate(90)"/>
        <path class="cls-1" d="m128.17,48.27h107.8c6.18,0,11.2,5.02,11.2,11.2v.06c0,6.18-5.02,11.2-11.2,11.2h-107.8v-22.47h0Z" transform="translate(247.16 -128.17) rotate(90)"/>
        <path class="cls-1" d="m198.24,111.74V0S220.7,0,220.7,0v111.74c0-15.96-22.47-15.58-22.47,0Z"/>
        <path class="cls-1" d="m242.51,111.74V0s22.47,0,22.47,0v111.74c0-15.96-22.47-15.58-22.47,0Z"/>
        <path class="cls-1" d="m259.99,48.27h107.8c6.18,0,11.2,5.02,11.2,11.2v.06c0,6.18-5.02,11.2-11.2,11.2h-107.8v-22.47h0Z" transform="translate(378.99 -259.99) rotate(90)"/>
        <path class="cls-1" d="m216.38,48.27h107.8c6.18,0,11.2,5.02,11.2,11.2v.06c0,6.18-5.02,11.2-11.2,11.2h-107.8v-22.47h0Z" transform="translate(335.38 -216.38) rotate(90)"/>
        <path class="cls-1" d="m286.45,111.74V0S308.92,0,308.92,0v111.74c0-15.96-22.47-15.58-22.47,0Z"/>
        <path class="cls-1" d="m330.73,111.74V0s22.47,0,22.47,0v111.74c0-15.96-22.47-15.58-22.47,0Z"/>
        <path class="cls-1" d="m304.27,48.27h107.8c6.18,0,11.2,5.02,11.2,11.2v.06c0,6.18-5.02,11.2-11.2,11.2h-107.8v-22.47h0Z" transform="translate(423.27 -304.27) rotate(90)"/>
      </g>
      <g>
        <path class="cls-1" d="m-4.65,48.27h107.8c6.18,0,11.2,5.02,11.2,11.2v.06c0,6.18-5.02,11.2-11.2,11.2H-4.65v-22.47h0Z" transform="translate(114.35 4.65) rotate(90)"/>
        <path class="cls-1" d="m-48.27,48.27H59.53c6.18,0,11.2,5.02,11.2,11.2v.06c0,6.18-5.02,11.2-11.2,11.2H-48.27v-22.47h0Z" transform="translate(70.73 48.27) rotate(90)"/>
        <path class="cls-1" d="m21.81,111.74V0S44.27,0,44.27,0v111.74c0-15.96-22.47-15.58-22.47,0Z"/>
        <path class="cls-1" d="m66.08,111.74V0s22.47,0,22.47,0v111.74c0-15.96-22.47-15.58-22.47,0Z"/>
        <path class="cls-1" d="m83.56,48.27h107.8c6.18,0,11.2,5.02,11.2,11.2v.06c0,6.18-5.02,11.2-11.2,11.2h-107.8v-22.47h0Z" transform="translate(202.56 -83.56) rotate(90)"/>
        <path class="cls-1" d="m39.95,48.27h107.8c6.18,0,11.2,5.02,11.2,11.2v.06c0,6.18-5.02,11.2-11.2,11.2H39.95v-22.47h0Z" transform="translate(158.95 -39.95) rotate(90)"/>
        <path class="cls-1" d="m110.02,111.74V0S132.49,0,132.49,0v111.74c0-15.96-22.47-15.58-22.47,0Z"/>
        <path class="cls-1" d="m154.3,111.74V0s22.47,0,22.47,0v111.74c0-15.96-22.47-15.58-22.47,0Z"/>
      </g>
    </g>
  </g>
</svg>